<svg xmlns="http://www.w3.org/2000/svg" xmlns:xlink="http://www.w3.org/1999/xlink" width="1080" zoomAndPan="magnify" viewBox="0 0 810 809.999993" height="1080" preserveAspectRatio="xMidYMid meet" version="1.0"><defs><g/></defs><g fill="#e12c2c" fill-opacity="1"><g transform="translate(34.205513, 451.547174)"><g><path d="M 147.164062 8.875 C 170.828125 9.613281 193.753906 2.957031 213.722656 -8.875 C 156.039062 0 110.1875 -56.941406 110.1875 -129.417969 C 110.1875 -188.578125 137.550781 -238.125 174.527344 -249.957031 C 165.652344 -252.175781 156.777344 -252.917969 147.164062 -252.917969 C 74.691406 -252.917969 15.53125 -194.496094 15.53125 -122.019531 C 15.53125 -49.546875 74.691406 8.875 147.164062 8.875 Z M 193.753906 -141.25 C 218.898438 -141.25 238.867188 -161.214844 238.867188 -186.359375 C 238.867188 -210.765625 218.898438 -231.472656 193.753906 -231.472656 C 169.351562 -231.472656 149.382812 -210.765625 149.382812 -186.359375 C 149.382812 -161.214844 169.351562 -141.25 193.753906 -141.25 Z M 193.753906 -141.25 "/></g></g></g><g fill="#2b2b2b" fill-opacity="1"><g transform="translate(129.427601, 575.642057)"><g><path d="M 223.335938 -260.3125 C 247.742188 -260.3125 267.707031 -281.019531 267.707031 -305.421875 C 267.707031 -330.566406 247.742188 -350.535156 223.335938 -350.535156 C 198.191406 -350.535156 178.226562 -330.566406 178.226562 -305.421875 C 178.226562 -281.019531 198.191406 -260.3125 223.335938 -260.3125 Z M 130.894531 -84.304688 C 126.457031 -86.523438 116.84375 -94.660156 116.84375 -118.324219 L 116.84375 -218.898438 C 116.84375 -242.5625 126.457031 -250.699219 130.894531 -252.917969 C 74.691406 -247.742188 33.277344 -211.503906 33.277344 -170.089844 L 33.277344 -167.132812 C 33.277344 -126.457031 74.691406 -90.222656 130.894531 -84.304688 Z M 162.695312 -84.304688 C 218.160156 -90.222656 259.574219 -126.457031 259.574219 -167.132812 L 259.574219 -170.089844 C 259.574219 -211.503906 218.160156 -247.742188 162.695312 -252.917969 C 167.871094 -250.699219 176.746094 -242.5625 176.746094 -218.898438 L 176.746094 -118.324219 C 176.746094 -94.660156 167.871094 -86.523438 162.695312 -84.304688 Z M 268.445312 30.320312 C 268.445312 -1.480469 255.875 -22.1875 235.167969 -36.976562 C 212.984375 -51.765625 181.183594 -58.421875 144.207031 -61.378906 C 108.710938 -64.339844 70.253906 -66.558594 53.984375 -79.128906 C 46.589844 -85.046875 43.632812 -92.441406 46.589844 -103.535156 C 46.589844 -103.535156 22.1875 -86.523438 22.1875 -59.160156 C 22.1875 -37.714844 31.800781 -23.664062 46.589844 -12.570312 C 68.777344 3.699219 104.273438 10.351562 137.550781 14.789062 C 164.914062 17.75 190.796875 23.664062 208.546875 34.757812 C 221.855469 44.371094 229.992188 56.941406 229.992188 76.910156 C 229.992188 108.710938 197.453125 120.542969 195.234375 121.28125 C 198.191406 120.542969 268.445312 94.660156 268.445312 30.320312 Z M 82.085938 7.394531 C 82.085938 7.394531 22.1875 11.09375 20.707031 59.902344 L 20.707031 60.640625 C 22.1875 108.710938 82.085938 119.0625 82.085938 119.0625 C 69.515625 113.148438 57.683594 99.835938 57.683594 62.859375 C 57.683594 25.882812 69.515625 12.570312 82.085938 7.394531 Z M 82.085938 7.394531 "/></g></g></g><g fill="#2b2b2b" fill-opacity="1"><g transform="translate(426.467214, 278.920525)"><g><path d="M 20.273438 -36.132812 C 10.675781 -36.132812 2.773438 -29.769531 2.773438 -17.453125 C 2.773438 -5.441406 10.417969 0.71875 19.914062 0.71875 C 28.792969 0.71875 35.3125 -3.644531 36.1875 -12.164062 L 36.238281 -12.679688 L 27 -12.679688 L 26.894531 -12.164062 C 26.125 -8.265625 23.816406 -6.058594 20.222656 -6.058594 C 16.117188 -6.058594 12.421875 -9.085938 12.421875 -18.015625 C 12.421875 -25.664062 15.757812 -29.359375 20.171875 -29.359375 C 23.917969 -29.359375 26.226562 -27.5625 27 -23.765625 L 27.101562 -23.25 L 36.339844 -23.25 L 36.289062 -23.765625 C 35.570312 -30.746094 30.386719 -36.132812 20.273438 -36.132812 Z M 20.273438 -36.132812 "/></g></g></g><g fill="#2b2b2b" fill-opacity="1"><g transform="translate(483.283331, 278.920525)"><g><path d="M 24.019531 -9.1875 L 27 0 L 37.058594 0 L 24.277344 -35.414062 L 12.984375 -35.414062 L 0.207031 0 L 10.007812 0 L 12.984375 -9.1875 Z M 18.527344 -27.253906 L 21.8125 -16.375 L 15.246094 -16.375 Z M 18.527344 -27.253906 "/></g></g></g><g fill="#2b2b2b" fill-opacity="1"><g transform="translate(538.713862, 278.920525)"><g><path d="M 44.605469 -35.414062 L 30.539062 -35.414062 L 24.535156 -8.980469 L 18.527344 -35.414062 L 4.105469 -35.414062 L 4.105469 0 L 13.34375 0 L 13.34375 -14.886719 C 13.34375 -17.964844 13.34375 -22.53125 13.242188 -26.125 C 13.808594 -22.53125 14.832031 -17.964844 15.65625 -14.886719 L 19.605469 0 L 29.101562 0 L 33.003906 -14.886719 C 33.824219 -18.015625 34.851562 -22.53125 35.46875 -26.125 C 35.363281 -22.53125 35.363281 -17.964844 35.363281 -14.886719 L 35.363281 0 L 44.605469 0 Z M 44.605469 -35.414062 "/></g></g></g><g fill="#2b2b2b" fill-opacity="1"><g transform="translate(605.229169, 278.920525)"><g><path d="M 13.34375 0 L 13.34375 -35.414062 L 4.105469 -35.414062 L 4.105469 0 Z M 13.34375 0 "/></g></g></g><g fill="#2b2b2b" fill-opacity="1"><g transform="translate(640.491553, 278.920525)"><g><path d="M 31.257812 -7.800781 L 13.34375 -7.800781 L 13.34375 -35.414062 L 4.105469 -35.414062 L 4.105469 0 L 31.257812 0 Z M 31.257812 -7.800781 "/></g></g></g><g fill="#2b2b2b" fill-opacity="1"><g transform="translate(691.867923, 278.920525)"><g><path d="M 31.257812 -7.800781 L 13.34375 -7.800781 L 13.34375 -35.414062 L 4.105469 -35.414062 L 4.105469 0 L 31.257812 0 Z M 31.257812 -7.800781 "/></g></g></g><g fill="#2b2b2b" fill-opacity="1"><g transform="translate(743.244293, 278.920525)"><g><path d="M 31.257812 -7.1875 L 13.34375 -7.1875 L 13.34375 -14.167969 L 29.71875 -14.167969 L 29.71875 -21.351562 L 13.34375 -21.351562 L 13.34375 -28.230469 L 30.746094 -28.230469 L 30.746094 -35.414062 L 4.105469 -35.414062 L 4.105469 0 L 31.257812 0 Z M 31.257812 -7.1875 "/></g></g></g><g fill="#e12c2c" fill-opacity="1"><g transform="translate(426.467214, 338.412793)"><g><path d="M 20.992188 -18.886719 L 20.992188 -11.703125 L 27.871094 -11.703125 C 26.585938 -7.800781 24.226562 -6.058594 20.632812 -6.058594 C 16.269531 -6.058594 12.421875 -9.085938 12.421875 -18.015625 C 12.421875 -25.664062 16.167969 -29.359375 20.683594 -29.359375 C 24.433594 -29.359375 26.742188 -27.5625 27.511719 -23.765625 L 27.613281 -23.25 L 36.851562 -23.25 L 36.800781 -23.765625 C 36.082031 -30.746094 30.898438 -36.132812 20.789062 -36.132812 C 11.085938 -36.132812 2.773438 -29.769531 2.773438 -17.453125 C 2.773438 -5.542969 9.394531 0.71875 18.835938 0.71875 C 22.585938 0.71875 24.996094 0.152344 27 -1.539062 L 28.539062 -5.441406 L 29.410156 0 L 36.597656 0 L 36.597656 -18.886719 Z M 20.992188 -18.886719 "/></g></g></g><g fill="#e12c2c" fill-opacity="1"><g transform="translate(484.566289, 338.412793)"><g><path d="M 24.019531 -9.1875 L 27 0 L 37.058594 0 L 24.277344 -35.414062 L 12.984375 -35.414062 L 0.207031 0 L 10.007812 0 L 12.984375 -9.1875 Z M 18.527344 -27.253906 L 21.8125 -16.375 L 15.246094 -16.375 Z M 18.527344 -27.253906 "/></g></g></g><g fill="#e12c2c" fill-opacity="1"><g transform="translate(539.996821, 338.412793)"><g><path d="M 31.71875 -8.621094 C 31.207031 -12.882812 29.871094 -15.605469 26.175781 -16.9375 C 30.898438 -18.324219 33.3125 -21.300781 33.3125 -25.765625 C 33.3125 -32.027344 28.847656 -34.542969 23.714844 -35.160156 C 21.8125 -35.363281 20.378906 -35.414062 18.171875 -35.414062 L 4.105469 -35.414062 L 4.105469 0 L 13.34375 0 L 13.34375 -13.449219 L 15.398438 -13.449219 C 16.425781 -13.449219 17.296875 -13.449219 18.324219 -13.394531 C 20.683594 -13.242188 22.226562 -10.984375 22.6875 -7.082031 C 22.996094 -4.566406 23.507812 -2.515625 24.328125 0 L 34.390625 0 C 33.003906 -2.105469 32.183594 -4.621094 31.71875 -8.621094 Z M 13.34375 -20.121094 L 13.34375 -28.230469 L 16.9375 -28.230469 C 17.914062 -28.230469 18.734375 -28.230469 19.402344 -28.179688 C 21.761719 -27.972656 23.660156 -27.152344 23.660156 -24.175781 C 23.660156 -21.199219 21.507812 -20.378906 19.144531 -20.171875 C 18.476562 -20.121094 17.65625 -20.121094 16.679688 -20.121094 Z M 13.34375 -20.121094 "/></g></g></g><g fill="#e12c2c" fill-opacity="1"><g transform="translate(594.144377, 338.412793)"><g><path d="M 20.273438 -36.132812 C 10.675781 -36.132812 2.773438 -29.769531 2.773438 -17.453125 C 2.773438 -5.441406 10.417969 0.71875 19.914062 0.71875 C 28.792969 0.71875 35.3125 -3.644531 36.1875 -12.164062 L 36.238281 -12.679688 L 27 -12.679688 L 26.894531 -12.164062 C 26.125 -8.265625 23.816406 -6.058594 20.222656 -6.058594 C 16.117188 -6.058594 12.421875 -9.085938 12.421875 -18.015625 C 12.421875 -25.664062 15.757812 -29.359375 20.171875 -29.359375 C 23.917969 -29.359375 26.226562 -27.5625 27 -23.765625 L 27.101562 -23.25 L 36.339844 -23.25 L 36.289062 -23.765625 C 35.570312 -30.746094 30.386719 -36.132812 20.273438 -36.132812 Z M 20.273438 -36.132812 "/></g></g></g><g fill="#e12c2c" fill-opacity="1"><g transform="translate(650.960493, 338.412793)"><g><path d="M 13.34375 0 L 13.34375 -35.414062 L 4.105469 -35.414062 L 4.105469 0 Z M 13.34375 0 "/></g></g></g><g fill="#e12c2c" fill-opacity="1"><g transform="translate(686.222877, 338.412793)"><g><path d="M 24.019531 -9.1875 L 27 0 L 37.058594 0 L 24.277344 -35.414062 L 12.984375 -35.414062 L 0.207031 0 L 10.007812 0 L 12.984375 -9.1875 Z M 18.527344 -27.253906 L 21.8125 -16.375 L 15.246094 -16.375 Z M 18.527344 -27.253906 "/></g></g></g></svg>